<svg height="1024" viewBox="0 0 4560 1024" width="4560" xmlns="http://www.w3.org/2000/svg" xmlns:xlink="http://www.w3.org/1999/xlink"><linearGradient id="a"><stop offset="0" stop-color="#f9ae4e"/><stop offset=".2205" stop-color="#f9a551"/><stop offset=".5869" stop-color="#f98b59"/><stop offset="1" stop-color="#fa6764"/></linearGradient><linearGradient id="b" x1="0%" x2="100%" xlink:href="#a" y1="50%" y2="50%"/><linearGradient id="c" x1=".002944%" x2="100.002944%" xlink:href="#a" y1="49.999181%" y2="49.999181%"/><g fill="none" fill-rule="evenodd"><path d="m0 0v1024h1024v-1024zm872 872h-720v-720h720z" fill="url(#b)" fill-rule="nonzero"/><path d="m151.7 152.3v720h720" fill="url(#c)" fill-rule="nonzero" opacity=".5"/><path d="m1471 345h54.5l152.5 354h-72l-33-81h-153.5l-32 81h-70.5zm80 219-54.5-144-55.5 144zm195.5-219h234.5v57h-171.5v87h162.5v57h-162.5v96h180.5v57h-243.5zm329 319c0-10.66672 3.91663-19.833295 11.75-27.5s17.24995-11.5 28.25-11.5c10.66672 0 19.99996 3.66663 28 11s12 16.33328 12 27-3.91663 19.833295-11.75 27.5-17.24995 11.5-28.25 11.5c-5.33336 0-10.41664-.99999-15.25-3s-9.08331-4.66665-12.75-8-6.58332-7.33331-8.75-12-3.25-9.66664-3.25-15zm356-243c-6.6667-9.666715-15.58328-16.749977-26.75-21.25s-22.9166-6.75-35.25-6.75c-7.33337 0-14.41663.833325-21.25 2.5s-12.99997 4.333315-18.5 8-9.91665 8.416637-13.25 14.25-5 12.74996-5 20.75c0 12.00006 4.16662 21.166635 12.5 27.5s18.66661 11.83331 31 16.5c12.3334 4.66669 25.83326 9.166645 40.5 13.5s28.16661 10.333295 40.5 18c12.3334 7.666705 22.66662 17.83327 31 30.5s12.5 29.499895 12.5 50.5c0 19.000095-3.49996 35.583263-10.5 49.75s-16.41661 25.91662-28.25 35.25-25.58325 16.33331-41.25 21c-15.66674 4.66669-32.16658 7-49.5 7-22.00011 0-43.16656-3.66663-63.5-11-20.33343-7.33337-37.83326-19.66658-52.5-37l47.5-46c7.6667 11.666725 17.74994 20.749968 30.25 27.25s25.74993 9.75 39.75 9.75c7.33337 0 14.66663-.99999 22-3s13.99997-4.99998 20-9 10.83331-9.083302 14.5-15.25 5.5-13.24996 5.5-21.25c0-13.000065-4.16662-22.999965-12.5-30s-18.6666-12.916642-31-17.75c-12.33339-4.833358-25.83326-9.416645-40.5-13.75s-28.1666-10.249963-40.5-17.75c-12.33339-7.500037-22.66662-17.499937-31-30s-12.5-29.249895-12.5-50.25c0-18.333425 3.74996-34.1666 11.25-47.5s17.33327-24.416623 29.5-33.25 26.08326-15.416645 41.75-19.75c15.66675-4.333355 31.66658-6.5 48-6.5 18.66676 0 36.74991 2.833305 54.25 8.5s33.24993 14.999935 47.25 28zm215-19h-108.5v-57h280v57h-108.5v297h-63zm527 167c0 21.33344-3.66663 40.583247-11 57.75s-17.33327 31.74994-30 43.75-27.66658 21.249968-45 27.75-36.16656 9.75-56.5 9.75-39.16658-3.249968-56.5-9.75-32.4166-15.74994-45.25-27.75-22.8333-26.583247-30-43.75-10.75-36.41656-10.75-57.75v-224h63v222c0 8.66671 1.33332 17.749953 4 27.25s7.0833 18.24996 13.25 26.25 14.33328 14.583308 24.5 19.75 22.74993 7.75 37.75 7.75 27.58328-2.583308 37.75-7.75 18.3333-11.74996 24.5-19.75 10.58332-16.749953 13.25-26.25 4-18.58329 4-27.25v-222h63zm106.5-224h139.5c23.33345 0 45.83322 3.583298 67.5 10.75 21.66677 7.166702 40.83325 18.08326 57.5 32.75s29.99995 33.083223 40 55.25 15 48.24985 15 78.25c0 30.333485-5.74994 56.583223-17.25 78.75s-26.33324 40.499928-44.5 55-38.33322 25.333298-60.5 32.5-43.91656 10.75-65.25 10.75h-132zm110 297c19.66676 0 38.24991-2.249977 55.75-6.75s32.74993-11.499953 45.75-21 23.24996-21.833257 30.75-37 11.25-33.583225 11.25-55.25c0-21.33344-3.3333-39.66659-10-55s-15.91661-27.749953-27.75-37.25-25.83325-16.499977-42-21-33.91657-6.75-53.25-6.75h-57.5v240zm297-297h63v354h-63zm150.5 178.5c0-28.333475 4.66662-54.083218 14-77.25s22.24992-42.916585 38.75-59.25 36.16655-28.916623 59-37.75 47.91653-13.25 75.25-13.25c27.6668-.333335 52.99989 3.749957 76 12.25s42.83325 20.916585 59.5 37.25 29.66662 35.999885 39 59 14 48.666525 14 77c0 27.666805-4.66662 52.83322-14 75.5s-22.33325 42.166585-39 58.5-36.49989 29.083287-59.5 38.25-48.3332 13.916665-76 14.25c-27.33347 0-52.41655-4.416623-75.25-13.25s-42.49992-21.333253-59-37.5c-16.50008-16.166748-29.41662-35.58322-38.75-58.25s-14-47.833195-14-75.5zm66-4c0 19.000095 2.91664 36.49992 8.75 52.5s14.08328 29.833275 24.75 41.5 23.41659 20.8333 38.25 27.5 31.41658 10 49.75 10 34.99993-3.3333 50-10 27.83328-15.833275 38.5-27.5 18.91664-25.49992 24.75-41.5 8.75-33.499905 8.75-52.5c0-17.666755-2.91664-34.16659-8.75-49.5s-14.08328-28.749942-24.75-40.25c-10.66672-11.500057-23.49993-20.499967-38.5-27-15.00007-6.500032-31.66658-9.75-50-9.75s-34.91659 3.249968-49.75 9.75c-14.83341 6.500033-27.58328 15.499943-38.25 27-10.66672 11.500058-18.91664 24.91659-24.75 40.25s-8.75 31.833245-8.75 49.5z" fill="#565f6b"/></g></svg>